<svg width="24" height="24" viewBox="0 0 24 24" xmlns="http://www.w3.org/2000/svg">
  <defs>
    <linearGradient id="grad1" x1="0%" y1="0%" x2="100%" y2="100%">
      <stop offset="0%" style="stop-color:#065f46;stop-opacity:1" />
      <stop offset="100%" style="stop-color:#059669;stop-opacity:1" />
    </linearGradient>
  </defs>
  <rect width="24" height="24" rx="4" fill="url(#grad1)"/>
  <g fill="white">
    <path d="M12 5a2 2 0 0 0-2 2v6a2 2 0 0 0 4 0V7a2 2 0 0 0-2-2z"/>
    <path d="M17 11v1a5 5 0 0 1-10 0v-1H5v1a7 7 0 0 0 6 6.92V21h2v-2.08A7 7 0 0 0 19 12v-1h-2z"/>
  </g>
</svg>
